HIERARCHY
ROOT joint_Root
{
	OFFSET 0.0 0.0 0.0
	CHANNELS 6 Xposition Yposition Zposition Zrotation Xrotation Yrotation 
	JOINT Hips
	{
		OFFSET 4.5925 91.4895 -427.239
		CHANNELS 6 Xposition Yposition Zposition Zrotation Xrotation Yrotation 
		JOINT Spine
		{
			OFFSET 15.7357 0.0 0.0
			CHANNELS 6 Xposition Yposition Zposition Zrotation Xrotation Yrotation 
			JOINT Chest
			{
				OFFSET 8.98455 -0.406207 0.0
				CHANNELS 6 Xposition Yposition Zposition Zrotation Xrotation Yrotation 
				JOINT Neck
				{
					OFFSET 16.3773 0.0 0.0
					CHANNELS 6 Xposition Yposition Zposition Zrotation Xrotation Yrotation 
					JOINT Head
					{
						OFFSET 6.45672 0.0 0.0
						CHANNELS 6 Xposition Yposition Zposition Zrotation Xrotation Yrotation 
						End Site
						{
							OFFSET 0.0 0.0 0.0
						}
					}
				}
				JOINT Shoulder_L
				{
					OFFSET 12.9942 -0.242716 4.98039
					CHANNELS 6 Xposition Yposition Zposition Zrotation Xrotation Yrotation 
					JOINT UpperArm_L
					{
						OFFSET 5.34809 0.0 0.0
						CHANNELS 6 Xposition Yposition Zposition Zrotation Xrotation Yrotation 
						JOINT LowerArm_L
						{
							OFFSET 24.3286 1.87007e-05 0.0
							CHANNELS 6 Xposition Yposition Zposition Zrotation Xrotation Yrotation 
							JOINT Hand_L
							{
								OFFSET 22.2916 0.0 0.0
								CHANNELS 6 Xposition Yposition Zposition Zrotation Xrotation Yrotation 
								End Site
								{
									OFFSET 0.0 0.0 0.0
								}
							}
						}
					}
				}
				JOINT Shoulder_R
				{
					OFFSET 12.9945 -0.242716 -4.98039
					CHANNELS 6 Xposition Yposition Zposition Zrotation Xrotation Yrotation 
					JOINT UpperArm_R
					{
						OFFSET -5.34813 0.0 0.0
						CHANNELS 6 Xposition Yposition Zposition Zrotation Xrotation Yrotation 
						JOINT LowerArm_R
						{
							OFFSET -24.3289 0.000322201 0.0
							CHANNELS 6 Xposition Yposition Zposition Zrotation Xrotation Yrotation 
							JOINT Hand_R
							{
								OFFSET -22.2915 -0.000108084 0.0
								CHANNELS 6 Xposition Yposition Zposition Zrotation Xrotation Yrotation 
								End Site
								{
									OFFSET 0.0 0.0 0.0
								}
							}
						}
					}
				}
			}
		}
		JOINT UpperLeg_L
		{
			OFFSET -2.19248 -6.46944 0.0
			CHANNELS 6 Xposition Yposition Zposition Zrotation Xrotation Yrotation 
			JOINT LowerLeg_L
			{
				OFFSET 39.0811 0.0 -1.23785e-05
				CHANNELS 6 Xposition Yposition Zposition Zrotation Xrotation Yrotation 
				JOINT Foot_L
				{
					OFFSET 40.9854 0.0 -1.26872e-05
					CHANNELS 6 Xposition Yposition Zposition Zrotation Xrotation Yrotation 
					JOINT Toes_L
					{
						OFFSET 11.7543 0.0 0.0
						CHANNELS 6 Xposition Yposition Zposition Zrotation Xrotation Yrotation 
						End Site
						{
							OFFSET 0.0 0.0 0.0
						}
					}
				}
			}
		}
		JOINT UpperLeg_R
		{
			OFFSET -2.19251 6.46944 0.0
			CHANNELS 6 Xposition Yposition Zposition Zrotation Xrotation Yrotation 
			JOINT LowerLeg_R
			{
				OFFSET -39.0811 -0.00228153 -0.0401928
				CHANNELS 6 Xposition Yposition Zposition Zrotation Xrotation Yrotation 
				JOINT Foot_R
				{
					OFFSET -40.9854 0.0 0.0
					CHANNELS 6 Xposition Yposition Zposition Zrotation Xrotation Yrotation 
					JOINT Toes_R
					{
						OFFSET -11.7543 0.0 0.0
						CHANNELS 6 Xposition Yposition Zposition Zrotation Xrotation Yrotation 
						End Site
						{
							OFFSET 0.0 0.0 0.0
						}
					}
				}
			}
		}
	}
}
MOTION
Frames:	7
Frame Time:	0.0333333
0.000000 0.000000 0.000000 0.000000 0.000000 -0.000000 -1.335010 90.572100 -7.723700 88.733500 -1.988250 12.043400 15.735700 0.000005 -0.000001 87.144200 74.856500 -87.424000 8.984550 -0.406207 -0.000000 22.485200 -1.502620 -0.263504 16.377300 -0.000001 -0.000001 10.030900 -3.875160 5.757690 6.456720 -0.000001 -0.000000 -11.448200 -2.061660 -1.651320 12.994200 -0.242716 4.980390 -91.226100 5.389120 -77.162800 5.348090 -0.000007 -0.000001 -46.144200 40.849000 -38.030500 24.328600 0.000019 0.000005 7.255190 17.791000 -22.619300 22.291600 -0.000001 0.000005 11.953900 5.259840 1.171120 12.994500 -0.242716 -4.980390 89.805700 0.797050 -76.302000 -5.348130 -0.000001 -0.000004 -70.774400 -19.864100 -80.822300 -24.328900 0.000322 -0.000009 18.289700 -5.371490 -105.814000 -22.291500 -0.000108 -0.000004 26.035000 5.206470 2.556570 -2.192480 -6.469440 -0.000000 -173.932000 -9.748760 -5.024110 39.081100 -0.000007 -0.000012 -0.146750 0.219838 33.724900 40.985400 -0.000006 -0.000013 0.102245 6.335290 -66.572000 11.754300 -0.000000 0.000003 -0.000048 -0.000550 -16.598900 -2.192510 6.469440 -0.000001 176.219000 21.324700 176.777000 -39.081100 -0.002282 -0.040193 -0.125632 0.201446 32.619900 -40.985400 0.000008 0.000006 4.683330 13.366500 -67.388600 -11.754300 -0.000006 -0.000006 -0.004185 -0.053352 -18.743400
0.000000 0.000000 0.000000 0.000000 0.000000 -0.000000 -1.327240 90.570800 -7.720720 88.734500 -1.980200 12.059900 15.735700 0.000005 -0.000001 87.087500 74.846000 -87.371400 8.984550 -0.406207 -0.000000 22.504600 -1.533210 -0.265415 16.377300 -0.000001 -0.000001 10.157300 -3.819970 5.738940 6.456720 -0.000001 -0.000000 -11.271100 -1.999370 -1.618910 12.994200 -0.242716 4.980390 -91.225300 5.369530 -77.125400 5.348090 -0.000007 -0.000001 -46.066600 40.854400 -38.138200 24.328600 0.000019 0.000005 7.216770 17.708700 -22.601400 22.291600 -0.000001 0.000005 11.986900 5.260340 1.157870 12.994500 -0.242716 -4.980390 89.814100 0.761615 -76.286600 -5.348130 -0.000001 -0.000004 -70.905700 -19.828900 -80.879700 -24.328900 0.000322 -0.000009 18.285700 -5.390570 -105.871000 -22.291500 -0.000108 -0.000004 25.939300 5.202410 2.658890 -2.192480 -6.469440 -0.000000 -173.943000 -9.724090 -5.002930 39.081100 -0.000007 -0.000012 -0.147985 0.221619 33.733000 40.985400 -0.000006 -0.000013 0.104280 6.306400 -66.587100 11.754300 -0.000000 0.000003 -0.000040 -0.000464 -16.595600 -2.192510 6.469440 -0.000001 176.200000 21.325600 176.797000 -39.081100 -0.002282 -0.040193 -0.126650 0.202989 32.625900 -40.985400 0.000008 0.000006 4.673210 13.361200 -67.393300 -11.754300 -0.000006 -0.000006 -0.004287 -0.054397 -18.786000
0.000000 0.000000 0.000000 0.000000 0.000000 -0.000000 -1.317900 90.565500 -7.709380 88.730200 -1.973350 12.083500 15.735700 0.000005 -0.000001 87.069300 74.826900 -87.356900 8.984550 -0.406207 -0.000000 22.542300 -1.544900 -0.270023 16.377300 -0.000001 -0.000001 10.237100 -3.826880 5.756240 6.456720 -0.000001 -0.000000 -11.168100 -2.043260 -1.614070 12.994200 -0.242716 4.980390 -91.229400 5.370890 -77.087100 5.348090 -0.000007 -0.000001 -46.058900 40.785500 -38.168600 24.328600 0.000019 0.000005 7.257520 17.726800 -22.697100 22.291600 -0.000001 0.000005 11.966600 5.259850 1.171050 12.994500 -0.242716 -4.980390 89.806500 0.789028 -76.219600 -5.348130 -0.000001 -0.000004 -70.922700 -19.820400 -80.961200 -24.328900 0.000322 -0.000009 18.278600 -5.401910 -105.909000 -22.291500 -0.000108 -0.000004 25.886800 5.204330 2.610440 -2.192480 -6.469440 -0.000000 -173.938000 -9.740040 -4.988550 39.081100 -0.000007 -0.000012 -0.146495 0.219136 33.763400 40.985400 -0.000006 -0.000013 0.121734 6.333800 -66.609300 11.754300 -0.000000 0.000003 -0.000045 -0.000520 -16.597800 -2.192510 6.469440 -0.000001 176.189000 21.327700 176.821000 -39.081100 -0.002282 -0.040193 -0.126281 0.202232 32.649200 -40.985400 0.000008 0.000006 4.667680 13.344800 -67.411600 -11.754300 -0.000006 -0.000006 -0.004285 -0.054370 -18.784900
0.000000 0.000000 0.000000 0.000000 0.000000 -0.000000 -1.314420 90.563600 -7.711530 88.704000 -1.958670 12.086600 15.735700 0.000005 -0.000001 87.051700 74.809200 -87.330600 8.984550 -0.406207 -0.000000 22.577400 -1.554560 -0.250143 16.377300 -0.000001 -0.000001 10.307000 -3.883610 5.768990 6.456720 -0.000001 -0.000000 -11.161000 -2.099560 -1.665230 12.994200 -0.242716 4.980390 -91.234900 5.390170 -77.075400 5.348090 -0.000007 -0.000001 -45.886100 40.831700 -38.318200 24.328600 0.000019 0.000005 7.216780 17.622700 -22.697400 22.291600 -0.000001 0.000005 11.984000 5.261040 1.139140 12.994500 -0.242716 -4.980390 89.810400 0.770967 -76.185200 -5.348130 -0.000001 -0.000004 -70.938000 -19.866400 -81.024800 -24.328900 0.000322 -0.000009 18.171000 -5.394980 -105.985000 -22.291500 -0.000108 -0.000004 25.772400 5.205370 2.584240 -2.192480 -6.469440 -0.000000 -173.908000 -9.748550 -5.006050 39.081100 -0.000007 -0.000012 -0.147616 0.220625 33.785900 40.985400 -0.000006 -0.000013 0.125370 6.349320 -66.610600 11.754300 -0.000000 0.000003 -0.000046 -0.000523 -16.597900 -2.192510 6.469440 -0.000001 176.209000 21.304700 176.826000 -39.081100 -0.002282 -0.040193 -0.128821 0.206244 32.643200 -40.985400 0.000008 0.000006 4.656910 13.345100 -67.405000 -11.754300 -0.000006 -0.000006 -0.004308 -0.054602 -18.794300
0.000000 0.000000 0.000000 0.000000 0.000000 -0.000000 -1.305330 90.566800 -7.720360 88.718100 -1.943990 12.060700 15.735700 0.000005 -0.000001 87.008300 74.808700 -87.296400 8.984550 -0.406207 -0.000000 22.577100 -1.578130 -0.263883 16.377300 -0.000001 -0.000001 10.310100 -3.917140 5.743620 6.456720 -0.000001 -0.000000 -11.125600 -2.162670 -1.679600 12.994200 -0.242716 4.980390 -91.235100 5.392200 -77.078100 5.348090 -0.000007 -0.000001 -45.876900 40.825600 -38.318000 24.328600 0.000019 0.000005 7.231770 17.641900 -22.718700 22.291600 -0.000001 0.000005 11.968000 5.261240 1.133590 12.994500 -0.242716 -4.980390 89.811000 0.767414 -76.165600 -5.348130 -0.000001 -0.000004 -70.899000 -19.876800 -81.043400 -24.328900 0.000322 -0.000009 18.259500 -5.419700 -105.975000 -22.291500 -0.000108 -0.000004 25.713000 5.202730 2.650530 -2.192480 -6.469440 -0.000000 -173.941000 -9.744370 -5.027020 39.081100 -0.000007 -0.000012 -0.146983 0.219835 33.767200 40.985400 -0.000006 -0.000013 0.137668 6.353840 -66.600800 11.754300 -0.000000 0.000003 -0.000042 -0.000484 -16.596400 -2.192510 6.469440 -0.000001 176.200000 21.352100 176.792000 -39.081100 -0.002282 -0.040193 -0.125447 0.201024 32.637100 -40.985400 0.000008 0.000006 4.661540 13.358200 -67.392500 -11.754300 -0.000006 -0.000006 -0.004087 -0.052343 -18.702300
0.000000 0.000000 0.000000 0.000000 0.000000 -0.000000 -1.293040 90.572600 -7.729500 88.714600 -1.963720 12.026600 15.735700 0.000005 -0.000001 86.972800 74.809800 -87.268700 8.984550 -0.406207 -0.000000 22.573900 -1.597300 -0.275844 16.377300 -0.000001 -0.000001 10.303700 -3.921070 5.726200 6.456720 -0.000001 -0.000000 -11.103900 -2.133140 -1.718720 12.994200 -0.242716 4.980390 -91.234800 5.394650 -77.087200 5.348090 -0.000007 -0.000001 -45.893900 40.831100 -38.291100 24.328600 0.000019 0.000005 7.245140 17.700400 -22.691400 22.291600 -0.000001 0.000005 11.958000 5.259920 1.169080 12.994500 -0.242716 -4.980390 89.805700 0.790116 -76.187900 -5.348130 -0.000001 -0.000004 -70.860700 -19.870000 -81.091500 -24.328900 0.000322 -0.000009 18.393500 -5.426640 -105.876000 -22.291500 -0.000108 -0.000004 25.570700 5.200980 2.694620 -2.192480 -6.469440 -0.000000 -173.950000 -9.758080 -5.049710 39.081100 -0.000007 -0.000012 -0.147003 0.220053 33.744500 40.985400 -0.000006 -0.000013 0.144688 6.349320 -66.589800 11.754300 -0.000000 0.000003 -0.000046 -0.000530 -16.598100 -2.192510 6.469440 -0.000001 176.207000 21.342000 176.761000 -39.081100 -0.002282 -0.040193 -0.127614 0.204643 32.607100 -40.985400 0.000008 0.000006 4.650000 13.378100 -67.365100 -11.754300 -0.000006 -0.000006 -0.004374 -0.055275 -18.821800
0.000000 0.000000 0.000000 0.000000 0.000000 -0.000000 -1.287100 90.580000 -7.739090 88.691100 -1.981430 11.994600 15.735700 0.000005 -0.000001 86.989800 74.816800 -87.282100 8.984550 -0.406207 -0.000000 22.560400 -1.587360 -0.270557 16.377300 -0.000001 -0.000001 10.277900 -3.891200 5.659990 6.456720 -0.000001 -0.000000 -11.058200 -2.093780 -1.701540 12.994200 -0.242716 4.980390 -91.231100 5.381660 -77.094200 5.348090 -0.000007 -0.000001 -45.940900 40.866900 -38.304200 24.328600 0.000019 0.000005 7.195040 17.688800 -22.561600 22.291600 -0.000001 0.000005 11.955300 5.261000 1.140390 12.994500 -0.242716 -4.980390 89.802800 0.801776 -76.185400 -5.348130 -0.000001 -0.000004 -70.864000 -19.849700 -81.096100 -24.328900 0.000322 -0.000009 18.408200 -5.398620 -105.785000 -22.291500 -0.000108 -0.000004 25.392800 5.199640 2.728370 -2.192480 -6.469440 -0.000000 -173.935000 -9.772570 -5.080830 39.081100 -0.000007 -0.000012 -0.145626 0.218167 33.723400 40.985400 -0.000006 -0.000013 0.139978 6.320640 -66.567600 11.754300 -0.000000 0.000003 -0.000048 -0.000545 -16.598700 -2.192510 6.469440 -0.000001 176.237000 21.365700 176.748000 -39.081100 -0.002282 -0.040193 -0.127723 0.205206 32.557300 -40.985400 0.000008 0.000006 4.650170 13.409000 -67.334600 -11.754300 -0.000006 -0.000006 -0.004124 -0.052724 -18.717900
